<svg xmlns="http://www.w3.org/2000/svg" width="740" height="420"><path d="M166.405 168.411c0-1.667-.7-3.218-1.868-4.41-1.284-1.312-2.686-1.905-4.436-1.905-1.634 0-3.152.596-4.436 1.905-1.167 1.192-1.75 2.74-1.75 4.41 0 1.786.583 3.337 1.75 4.524 1.284 1.317 2.802 1.908 4.436 1.908 1.75 0 3.152-.594 4.436-1.908 1.17-1.187 1.868-2.738 1.868-4.524z" clip-rule="evenodd" fill="#e91e23" fill-rule="evenodd"/><path d="M259.335 164.938c-1.284-1.192-2.686-1.786-4.436-1.786s-3.152.597-4.436 1.786c-1.167 1.311-1.75 2.741-1.75 4.527 0 1.789.583 3.219 1.75 4.53 1.284 1.192 2.802 1.788 4.436 1.788 1.753 0 3.152-.599 4.436-1.788 1.167-1.311 1.866-2.739 1.866-4.53.004-1.786-.699-3.216-1.866-4.527z" clip-rule="evenodd" fill="#02b2e7" fill-rule="evenodd"/><path d="M314.676 165.416c-1.283-1.311-2.683-1.907-4.436-1.907-1.634 0-3.152.596-4.435 1.907-1.168 1.192-1.75 2.738-1.75 4.408 0 1.786.582 3.334 1.75 4.532 1.283 1.311 2.801 1.902 4.435 1.902 1.753 0 3.153-.593 4.436-1.902 1.168-1.198 1.869-2.743 1.869-4.532 0-1.67-.701-3.216-1.869-4.408z" clip-rule="evenodd" fill="#fabc16" fill-rule="evenodd"/><path d="M397.35 171.425c0-1.786-.582-3.219-1.753-4.53-1.283-1.19-2.799-1.904-4.433-1.904-1.75 0-3.152.715-4.432 1.904-1.168 1.311-1.753 2.741-1.753 4.53 0 1.667.585 3.218 1.753 4.53 1.283 1.192 2.685 1.782 4.432 1.782 1.637 0 3.153-.593 4.433-1.783 1.17-1.31 1.753-2.862 1.753-4.53z" clip-rule="evenodd" fill="#e91e23" fill-rule="evenodd"/><path d="M483.616 165.772c-1.287-1.192-2.805-1.905-4.436-1.905-1.753 0-3.152.713-4.436 1.905-1.167 1.311-1.75 2.74-1.75 4.53 0 1.67.583 3.218 1.75 4.529 1.287 1.192 2.686 1.783 4.436 1.783 1.634 0 3.152-.593 4.436-1.783 1.167-1.311 1.75-2.857 1.75-4.53 0-1.788-.583-3.218-1.75-4.53z" clip-rule="evenodd" fill="#fabc16" fill-rule="evenodd"/><path d="M583.068 165.193c-1.165-1.311-2.686-1.907-4.317-1.907-1.75 0-3.269.596-4.433 1.907-1.284 1.192-1.869 2.738-1.869 4.408 0 1.786.585 3.334 1.869 4.532 1.167 1.311 2.685 1.902 4.433 1.902 1.634 0 3.154-.593 4.317-1.902 1.286-1.198 1.868-2.743 1.868-4.532-.004-1.67-.585-3.216-1.868-4.408z" clip-rule="evenodd" fill="#02b2e7" fill-rule="evenodd"/><path d="M361.319 148.367v-3.575c-6.887-2.382-13.542-1.548-19.844 2.385-1.984.952-3.734 3.097-5.368 6.313l-3.97 9.175c-.816 1.548-1.167 3.693-1.167 6.552 0 2.741-.466 4.886-1.167 6.553-.817 2.382-1.168 6.793-1.168 13.106 7.59-.831 13.776-1.902 18.794-3.332 7.122-2.026 12.49-4.888 16.225-8.581-3.387 0-7.353.717-11.673 2.026l-11.673 3.93c-2.22 0-3.735-.95-4.552-2.857-.82-1.667-.82-3.574-.118-5.481 1.868-2.976 3.152-4.767 3.853-5.36 1.869-1.787 4.085-2.383 6.655-1.787.35 0 .7-.477 1.167-1.192.35-.834.699-1.192 1.168-1.192l3.268.356c1.284.237 2.1.118 2.567-.356.933-.715 2.686-1.312 5.25-2.026 2.103-.475 3.853-1.43 5.253-2.741h-23.346c-.933 0-1.516-.36-1.869-.955-.35-.597-.35-1.311-.232-2.264.348-2.026 1.4-3.334 3.268-3.93 4.439-1.91 10.624-3.459 18.679-4.767zm5.255 12.478l-1.753.237h2.22zm.466.237l1.284.357c1.402.596 2.57.477 3.503-.357h-4.786z" clip-rule="evenodd" fill-rule="evenodd"/><path stroke-miterlimit="2.613" d="M364.821 160.28h2.22m0 0l1.283.356m-.004.003c1.402.596 2.57.477 3.503-.356m0-.003h-4.784m0 0l-.466-.237-1.753.237m0 0h-23.346m0 0c-.933 0-1.516-.359-1.869-.955-.35-.596-.35-1.311-.232-2.264.348-2.026 1.4-3.334 3.268-3.93 4.436-1.907 10.624-3.456 18.679-4.767m-.005.003v-3.575m0-.002c-6.886-2.383-13.541-1.549-19.843 2.384-1.984.953-3.734 3.097-5.368 6.313m0 0l-3.97 9.175m0 0c-.817 1.548-1.167 3.693-1.167 6.553 0 2.74-.467 4.885-1.168 6.553-.817 2.382-1.167 6.792-1.167 13.105 7.59-.83 13.776-1.902 18.794-3.332 7.121-2.026 12.49-4.888 16.225-8.581-3.387 0-7.354.718-11.673 2.026m0 0l-11.673 3.93m0 0c-2.22 0-3.735-.949-4.552-2.856-.82-1.668-.82-3.575-.119-5.482 1.869-2.976 3.153-4.767 3.854-5.36 1.868-1.786 4.085-2.383 6.654-1.786.351 0 .702-.478 1.168-1.193.35-.833.698-1.192 1.168-1.192m0 0l3.268.356m0 0c1.283.237 2.1.119 2.567-.356.933-.715 2.685-1.311 5.25-2.026 2.103-.475 3.853-1.43 5.252-2.741" fill="none" stroke="#000" stroke-width="5.521" stroke-linecap="round" stroke-linejoin="round"/><path d="M455.065 150.413c0-.715.348-2.145 1.167-4.171.817-1.907 1.168-3.337 1.168-4.17.235-.597.701-1.55 1.402-2.383l1.634-2.5c1.286-2.024 1.4-3.931.467-5.839-1.168 3.575-3.268 8.938-6.418 16.087-3.155 7.149-5.253 12.51-6.42 16.087l-2.338 6.434c-1.4 2.263-3.268 2.98-5.835 1.907-6.652-2.74-11.789-6.671-15.173-11.916l-3.506-7.03c-1.399-2.5-2.567-3.456-3.502-2.5-3.384 3.574-5.717 8.815-6.652 15.964l-1.518 18.587c.932 0 1.404.594 1.518 1.668l.234.836c.119.237.35.237.583-.119.935-1.548 1.752-3.693 2.219-6.555l1.051-7.268c.235-2.738.702-4.645 1.284-5.716.82-1.549 1.987-2.145 3.621-1.908 2.104 0 4.317.715 6.418 2.026 1.753.953 3.621 2.501 5.835 4.646l5.838 5.96c2.335 2.257 4.433 4.048 6.42 5.238 2.335 0 3.503-.356 3.503-1.192 0-4.767.698-10.13 2.1-16.087.933-3.574 2.565-8.937 4.9-16.086z" clip-rule="evenodd" fill-rule="evenodd"/><path stroke-miterlimit="2.613" d="M456.232 146.245c.817-1.908 1.168-3.337 1.168-4.171.235-.596.701-1.549 1.402-2.382m0-.003l1.634-2.5m-.004 0c1.286-2.024 1.4-3.931.466-5.839-1.167 3.575-3.268 8.938-6.417 16.087-3.155 7.149-5.253 12.51-6.42 16.086m0-.002l-2.338 6.434m0-.003c-1.4 2.263-3.269 2.98-5.836 1.907-6.652-2.74-11.789-6.671-15.173-11.916m0 0l-3.505-7.03m0 .003c-1.4-2.501-2.567-3.456-3.503-2.501-3.384 3.575-5.716 8.816-6.652 15.965m.004 0l-1.518 18.587m0-.002c.933 0 1.405.593 1.518 1.667m0 0l.235.836m0 0c.119.237.35.237.583-.119.935-1.548 1.752-3.693 2.219-6.555m-.005 0l1.052-7.268m0 0c.235-2.738.701-4.645 1.283-5.716.82-1.549 1.988-2.145 3.622-1.908 2.103 0 4.317.715 6.417 2.026 1.753.953 3.622 2.501 5.836 4.646m0 0l5.837 5.96m0 0c2.336 2.257 4.433 4.048 6.42 5.238 2.336 0 3.503-.356 3.503-1.192 0-4.767.699-10.13 2.1-16.087.937-3.574 2.57-8.935 4.903-16.084 0-.715.348-2.144 1.168-4.17" fill="none" stroke="#000" stroke-width="5.521" stroke-linecap="round" stroke-linejoin="round"/><path d="M549.466 166.251c1.283-6.671-.353-12.275-4.67-16.68-5.604-4.29-11.091-5.838-16.341-4.767l-9.807-1.074c-3.735-.477-6.768-.477-8.871-.118.935 4.885.35 10.604-1.985 16.92l-6.186 15.25c-1.518 2.857-1.868 5.838-1.167 8.695l2.335 7.985h2.335v-7.149c0-.475.235-.836.701-.955l1.634-.237c3.387-1.43 9.222-2.857 17.508-4.411 7.472-1.311 13.307-2.976 17.511-5.12 1.869-1.311 3.387-2.738 4.784-4.174 1.402-1.664 2.219-3.094 2.219-4.165zm-7.59-11.56c2.453 2.026 3.968 5.005 4.667 9.175-.933 3.575-4.083 6.197-9.454 7.867l-7.121 1.783c-3.034.718-5.369 1.43-7 2.145-1.168 0-2.335-.955-3.738-2.981-.698-.95-1.4-1.549-2.097-1.668-.586 0-1.287.238-2.22.718l-2.804 1.074-3.853-.124 4.2-11.199c1.519-4.526 2.57-8.338 3.153-11.198 1.985.715 5.02 1.071 8.755 1.071l9.454.356c3.508.359 6.191 1.433 8.057 2.981z" clip-rule="evenodd" fill-rule="evenodd"/><path stroke-miterlimit="2.613" d="M544.795 149.568c-5.603-4.29-11.09-5.838-16.34-4.767m0 .003l-9.807-1.073m0 0c-3.735-.478-6.768-.478-8.871-.12.935 4.886.35 10.606-1.985 16.921m0-.003l-6.186 15.25m0 .003c-1.518 2.857-1.868 5.838-1.167 8.695m0 0l2.335 7.985h2.335v-7.149m0 0c0-.474.235-.836.701-.955m0 0l1.634-.237m-.004 0c3.387-1.43 9.222-2.857 17.508-4.411 7.472-1.311 13.307-2.975 17.51-5.12 1.87-1.311 3.388-2.738 4.784-4.174 1.405-1.667 2.222-3.094 2.222-4.168 1.284-6.671-.353-12.274-4.67-16.68" fill="none" stroke="#000" stroke-width="5.521" stroke-linecap="round" stroke-linejoin="round"/><path d="M630.665 147.82l-.353-3.456h-3.506c-4.082 3.218-8.753 6.434-14.005 9.534-10.155 4.167-14.823 8.578-14.006 13.105.817 1.905 2.335 3.218 4.552 3.812l7.237.237 8.405-.833 7.817.359c.588 0 .938.237 1.286.593l1.052 1.789c.466.955.35 1.907-.119 2.856l-1.049 1.908c-2.804 2.382-6.188 4.41-10.039 6.075a40.29 40.29 0 0 1-10.974 3.456c-1.518 1.667-2.335 3.218-2.335 4.767 1.984-1.668 4.783-3.337 8.523-4.886l9.923-3.574c3.732-1.549 6.534-3.1 8.518-4.767 2.454-2.145 4.085-4.886 4.552-8.223-3.15-1.789-7.585-2.744-12.954-2.504l-13.892.12c-.93-.476-1.4-1.43-1.4-2.98l.232-2.977c7.356-5.957 14.359-9.89 21.011-11.916 1.055-.47 1.524-1.303 1.524-2.495z" clip-rule="evenodd" fill-rule="evenodd"/><path stroke-miterlimit="2.613" d="M630.312 144.364h-3.506m0 0c-4.082 3.218-8.753 6.434-14.005 9.534-10.155 4.167-14.823 8.578-14.006 13.105.817 1.905 2.335 3.218 4.552 3.812m0 0l7.237.237 8.405-.833 7.817.359m0 0c.588 0 .938.237 1.286.593m0 0l1.052 1.789m0 .002c.466.956.35 1.908-.119 2.857m0 0l-1.049 1.908m0 0c-2.804 2.382-6.188 4.41-10.039 6.075a40.29 40.29 0 0 1-10.974 3.456c-1.518 1.667-2.335 3.218-2.335 4.767 1.984-1.668 4.783-3.338 8.523-4.886m.005 0l9.923-3.575m0 0c3.731-1.548 6.533-3.1 8.518-4.766 2.453-2.145 4.085-4.886 4.551-8.223-3.15-1.789-7.585-2.744-12.954-2.504m0 .006l-13.892.119m-.004 0c-.93-.475-1.4-1.43-1.4-2.978m.005-.003l.232-2.979m-.005 0c7.356-5.956 14.359-9.89 21.011-11.915 1.052-.475 1.521-1.312 1.521-2.501m.004 0l-.353-3.456" fill="none" stroke="#000" stroke-width="5.521" stroke-linecap="round" stroke-linejoin="round"/><path d="M282 154.86c1.516-5.242 1.75-10.009.699-14.18h-2.336c-2.332 9.534-5.018 23.83-8.17 42.897 0 .83 1.168 1.187 3.503 1.187.232-1.311.466-4.168.232-8.457 0-3.812.232-6.55.933-8.22L282 154.86z" clip-rule="evenodd" fill-rule="evenodd"/><path stroke-miterlimit="2.613" d="M282.701 140.68h-2.335m-.004 0c-2.333 9.534-5.018 23.83-8.17 42.897 0 .83 1.167 1.187 3.502 1.187.232-1.311.467-4.168.232-8.457 0-3.812.232-6.55.933-8.22m.004 0L282 154.86m0 0c1.516-5.242 1.75-10.009.699-14.18" fill="none" stroke="#000" stroke-width="5.521" stroke-linecap="round" stroke-linejoin="round"/><path d="M212.384 140.067c-2.801-.596-5.487-.596-7.938 0-2.918 2.263-5.603 3.693-8.17 4.408-3.268.833-6.07.119-8.17-2.026l-1.168 4.767c-1.518 5.956-3.503 14.775-5.838 26.214-2.335 11.56-4.201 20.254-5.835 26.21-.933 2.863-.467 6.794 1.167 11.914l.583-10.125c.35-4.173.582-7.51 1.052-10.13 1.167-7.505 3.734-13.105 7.703-16.68 2.1-1.548 5.253-1.902 9.454-1.073 2.686.598 6.188 1.788 10.39 3.455 8.52 3.456 15.526 4.292 21.01 2.382v-2.382c-3.384 0-7.237-.712-11.673-2.026l-11.673-3.93-1.634-2.382c-.466-.953-.7-1.786-.7-2.382 1.048-2.026 2.917-3.93 5.834-5.838l7.704-4.527c2.802-1.786 4.552-3.456 5.369-5.004.933-2.145.466-4.527-1.4-7.268-1.049-1.67-3.15-2.862-6.067-3.577zm-1.52 10.605c-1.516 1.907-3.62 3.93-6.42 6.196-2.802 2.382-5.37 4.171-7.94 5.6-2.682 1.43-4.783 2.145-6.069 1.787 0-3.335.232-5.838.817-7.505.817-2.264 2.335-4.171 4.786-5.482 2.567-1.43 5.253-2.622 7.936-3.693 4.201-1.549 7.005-1.786 8.286-.715.707.593.24 1.786-1.397 3.812z" clip-rule="evenodd" fill-rule="evenodd"/><path stroke-miterlimit="2.613" d="M204.446 140.067c-2.918 2.263-5.603 3.693-8.17 4.408-3.268.833-6.07.119-8.17-2.026m-.003 0l-1.168 4.767m0 0c-1.518 5.956-3.503 14.775-5.838 26.214-2.335 11.56-4.201 20.254-5.835 26.21-.933 2.863-.466 6.794 1.168 11.914m.002 0l.583-10.125m0 0c.35-4.173.582-7.51 1.052-10.13 1.167-7.505 3.734-13.105 7.703-16.68 2.1-1.548 5.253-1.902 9.454-1.073 2.686.598 6.189 1.788 10.39 3.455 8.52 3.456 15.526 4.292 21.01 2.382m-.002.003v-2.382m0-.003c-3.385 0-7.238-.712-11.673-2.026m.002 0l-11.673-3.93-1.634-2.382m0 0c-.466-.953-.7-1.786-.7-2.382 1.048-2.026 2.917-3.93 5.834-5.838m0-.003l7.704-4.527m0 0c2.802-1.786 4.552-3.456 5.369-5.004.933-2.145.466-4.527-1.4-7.268-1.048-1.667-3.152-2.86-6.07-3.574-2.8-.597-5.487-.597-7.938 0" fill="none" stroke="#000" stroke-width="5.521" stroke-linecap="round" stroke-linejoin="round"/><path d="M128.721 135.132c3.152-1.192 6.186-1.907 9.22-2.503.7 0 1.517-.594 2.219-1.786.817-1.192.466-1.786-1.168-1.786-3.853-1.192-7.938-1.074-12.371.24-3.97 1.19-7.238 3.097-9.689 5.717-2.335 1.31-3.969 4.289-5.02 8.697l-1.284 5.838c-.582 2.263-1.165 4.17-1.866 5.72l-2.686 3.69c-1.048 1.548-1.399 3.1-.817 4.648.701.715 1.168 1.907 1.168 3.574.466 3.219.582 6.79.35 10.72-.115 2.626-.582 6.2-1.167 10.843l-1.4 11.085c-.35 4.168-.466 7.98-.234 11.436l3.152-21.447c1.168-8.576 2.567-15.725 3.97-21.447 0-1.071.816-2.142 2.569-3.219 1.518-.833 3.036-1.43 4.436-1.548 2.219-.356 4.667-.952 7.237-1.786l6.77-2.86a80.367 80.367 0 0 1 6.653-2.619l1.984-.477-22.644 1.785c-1.168 0-2.217-.474-3.268-1.548-.933-.955-1.4-2.026-1.4-3.216 1.518-6.437 3.853-11.2 7.003-14.298l8.283-3.453z" clip-rule="evenodd" fill-rule="evenodd"/><path stroke-miterlimit="2.613" d="M140.745 155.864L118.1 157.65m0 0c-1.168 0-2.217-.475-3.268-1.548-.933-.955-1.4-2.026-1.4-3.216 1.518-6.437 3.854-11.2 7.003-14.298m-.003 0l8.29-3.456m0 0c3.151-1.192 6.185-1.907 9.218-2.503.701 0 1.518-.594 2.22-1.786.816-1.192.466-1.786-1.168-1.786-3.853-1.192-7.939-1.074-12.371.24-3.97 1.19-7.238 3.097-9.689 5.717-2.335 1.31-3.969 4.289-5.02 8.697m0 0l-1.284 5.838m0 0c-.583 2.263-1.165 4.17-1.866 5.72m0 .002l-2.686 3.69m0 0c-1.049 1.549-1.4 3.1-.817 4.649.701.715 1.168 1.907 1.168 3.574.466 3.219.582 6.79.35 10.72-.116 2.626-.582 6.2-1.167 10.843m0 0l-1.4 11.085m-.003 0c-.35 4.168-.466 7.98-.234 11.436m0-.003l3.152-21.447m.003.003c1.167-8.576 2.567-15.725 3.97-21.447 0-1.071.816-2.142 2.569-3.219 1.518-.833 3.036-1.43 4.435-1.548 2.22-.356 4.668-.952 7.238-1.786m-.003 0l6.77-2.86m-.002 0a80.37 80.37 0 0 1 6.652-2.619m0 0l1.985-.478m5.255-.593l-5.253.593" fill="none" stroke="#000" stroke-width="5.521" stroke-linecap="round" stroke-linejoin="round"/><g font-weight="400" font-size="115.592" font-family="AmerType Md BT"><path d="M135.182 321.668c.655 0 1.117-.134 1.387-.402s.404-.727.404-1.377v-11.186c0-1.033.385-1.893 1.155-2.582.77-.688 1.772-1.032 3.004-1.032 1.233 0 2.263.354 3.091 1.061.828.708 1.242 1.559 1.242 2.553v10.842c0 .956.096 1.549.289 1.778.193.23.655.345 1.387.345h11.842c1.425 0 2.533.334 3.322 1.004.79.669 1.184 1.615 1.184 2.84 0 1.376-.423 2.39-1.27 3.04-.848.65-2.119.975-3.813.975H147.14c-.617 0-1.05.239-1.3.717s-.376 1.329-.376 2.553v24.667c0 6.54.578 10.708 1.733 12.506 1.156 1.797 3.235 2.696 6.24 2.696 2.58 0 4.583-.86 6.008-2.582 1.424-1.72 2.137-4.168 2.137-7.342 0-.65-.039-1.645-.116-2.984-.077-1.338-.115-2.332-.115-2.983 0-1.797.337-3.164 1.01-4.101.675-.937 1.667-1.406 2.976-1.406 1.772 0 3.023.584 3.755 1.75.732 1.166 1.098 3.241 1.098 6.224 0 6.922-1.502 12.22-4.506 15.89-3.004 3.672-7.376 5.508-13.114 5.508-5.7 0-9.783-1.444-12.247-4.331-2.465-2.888-3.698-7.754-3.698-14.6v-28.912c0-1.454-.125-2.362-.375-2.725-.25-.364-.684-.545-1.3-.545h-4.506c-1.386 0-2.397-.316-3.033-.947-.635-.63-.953-1.616-.953-2.954 0-1.377.337-2.38 1.01-3.012.675-.63 1.744-.946 3.207-.946h4.506z" style="line-height:125%;-inkscape-font-specification:'AmerType Md BT';text-align:start"/><path d="M183.669 319.2c0-5.812-.437-9.302-1.31-10.468-.872-1.167-2.645-1.75-5.32-1.75h-3.51c-1.485 0-2.543-.249-3.174-.746-.632-.497-.948-1.32-.948-2.467 0-1.185.381-2.103 1.142-2.753.762-.65 1.867-.975 3.315-.975.074 0 .734.057 1.978.172a40.27 40.27 0 0 0 3.704.172c2.674 0 5.348-.096 8.022-.287.483-.038.78-.057.892-.057 1.411 0 2.367.296 2.869.889.501.593.752 2.017.752 4.274v24.667c2.451-3.213 5.171-5.565 8.161-7.056 2.99-1.492 6.434-2.237 10.334-2.237 7.725 0 13.305 1.96 16.74 5.88 3.436 3.92 5.153 10.259 5.153 19.016v18.587c0 3.595.344 5.842 1.031 6.74.687.9 2.145 1.349 4.373 1.348.446 0 .994-.057 1.644-.172.65-.114 1.086-.172 1.309-.172 1.56 0 2.748.335 3.565 1.004.817.67 1.226 1.673 1.226 3.012 0 1.262-.344 2.16-1.031 2.696-.687.536-1.83.803-3.426.803-.409 0-1.968-.153-4.68-.459-2.71-.306-5.218-.459-7.52-.459-2.749 0-5.608.153-8.58.46-2.97.305-4.567.458-4.79.458-1.3 0-2.303-.315-3.008-.946-.706-.631-1.059-1.52-1.059-2.668 0-1.338.362-2.323 1.086-2.954.725-.631 1.83-.947 3.315-.947.668 0 1.448.058 2.34.172.891.115 1.448.173 1.671.172 1.56 0 2.6-.44 3.12-1.319.52-.88.78-3.136.78-6.77v-16.693c0-7.075-1.133-12.113-3.399-15.115-2.265-3.003-5.998-4.504-11.197-4.504-5.942 0-10.288 2.104-13.036 6.31-2.748 4.207-4.122 10.881-4.122 20.021v9.982c0 3.633.26 5.89.78 6.77.52.879 1.56 1.319 3.12 1.318.222 0 .789-.057 1.699-.172.91-.114 1.68-.172 2.311-.172 1.486 0 2.582.316 3.287.947.706.63 1.059 1.616 1.059 2.954 0 1.186-.344 2.084-1.031 2.696-.687.612-1.68.918-2.98.918-.223 0-1.82-.153-4.791-.459a83.816 83.816 0 0 0-8.58-.459c-2.265 0-4.762.153-7.492.46-2.73.305-4.299.458-4.708.458-1.596 0-2.739-.267-3.426-.803-.687-.535-1.03-1.434-1.03-2.696 0-1.339.39-2.343 1.17-3.012.78-.67 1.95-1.004 3.51-1.004.408 0 .974.058 1.698.172.725.115 1.235.173 1.532.172 2.192 0 3.65-.401 4.374-1.204.724-.803 1.086-3.098 1.086-6.884V319.2zm87.017.576c-7.893 0-14.156 2.736-18.791 8.224-4.635 5.488-6.938 12.873-6.938 22.166 0 9.332 2.303 16.74 6.938 22.227 4.635 5.488 10.898 8.255 18.791 8.255 4.43 0 8.252-.748 11.436-2.201 3.183-1.453 5.914-3.697 8.223-6.757 1.489-2.027 2.672-4.069 3.565-6.115.894-2.046 1.35-3.76 1.35-5.136 0-1.186-.38-2.151-1.125-2.935-.744-.784-1.678-1.192-2.794-1.193-1.75 0-3.183 1.573-4.337 4.709-.745 2.103-1.45 3.676-2.12 4.708-1.75 2.563-3.705 4.417-5.846 5.565-2.14 1.147-4.775 1.712-7.902 1.712-5.138 0-9.258-1.939-12.367-5.84-3.109-3.9-4.658-9.099-4.658-15.562v-.336h36.138c2.159 0 3.591-.367 4.336-1.131.744-.765 1.124-2.3 1.124-4.556 0-7.84-2.268-14.087-6.81-18.772-4.542-4.685-10.618-7.032-18.213-7.032zm.129 7.521c4.579 0 8.266 1.435 11.114 4.341 2.848 2.907 4.272 6.708 4.272 11.374v.734h-31.544c.484-5.087 2.19-9.102 5.076-12.046 2.885-2.945 6.577-4.403 11.082-4.403zm89.135-7.399c-8.131 0-14.577 2.714-19.338 8.163-4.76 5.45-7.135 12.812-7.135 22.105 0 9.293 2.374 16.72 7.135 22.227 4.76 5.507 11.186 8.255 19.248 8.255 8.305 0 14.835-2.732 19.578-8.163 4.744-5.43 7.106-12.873 7.106-22.319 0-9.37-2.362-16.754-7.106-22.166-4.743-5.411-11.252-8.102-19.488-8.102zm.12 7.521c5.63 0 10.055 2.008 13.252 6.023 3.197 4.016 4.797 9.573 4.797 16.724 0 7.075-1.613 12.628-4.827 16.663s-7.627 6.053-13.222 6.053c-5.803 0-10.287-1.961-13.432-5.9-3.144-3.94-4.707-9.55-4.707-16.816 0-7.113 1.613-12.689 4.827-16.724 3.215-4.034 7.648-6.023 13.312-6.023zm43.333 1.539c-2.019.039-4.123.105-6.31.201-2.188.096-3.375.144-3.562.143-1.272 0-2.207-.267-2.805-.803-.598-.535-.897-1.376-.897-2.524 0-1.147.402-2.055 1.206-2.725.804-.669 1.897-1.003 3.281-1.004.15 0 1.066.058 2.749.173 1.683.114 3.29.172 4.824.172h1.514c0-.268-.018-.66-.056-1.176a17.597 17.597 0 0 1-.056-1.176c0-6.463 1.608-11.368 4.824-14.715 3.216-3.346 7.928-5.02 14.136-5.02 4.3 0 7.75.967 10.35 2.898 2.598 1.931 3.898 4.484 3.898 7.658 0 1.721-.468 3.098-1.402 4.13-.935 1.033-2.188 1.55-3.759 1.55-1.645 0-2.945-.383-3.898-1.148-.954-.765-1.43-1.797-1.43-3.098 0-.459.083-1.1.252-1.921.168-.823.252-1.406.252-1.75 0-.535-.355-.937-1.066-1.205-.71-.267-1.813-.401-3.31-.401-3.402 0-5.983 1.051-7.74 3.155-1.758 2.103-2.637 5.201-2.637 9.293 0 .765.01 1.348.029 1.75.018.401.065.793.14 1.176 2.505 0 5.123-.096 7.853-.287a29.006 29.006 0 0 1 1.178-.058c1.533 0 2.72.316 3.562.947.841.631 1.262 1.52 1.262 2.668 0 1.147-.327 2.007-.982 2.581-.654.574-1.654.86-3 .86-.15 0-.543-.019-1.179-.057a129.64 129.64 0 0 0-8.47-.287v35.452c0 3.595.28 5.842.842 6.74.56.9 1.72 1.349 3.477 1.349.15 0 .73-.057 1.74-.172a24.542 24.542 0 0 1 2.748-.172c1.683 0 2.907.315 3.674.946.767.631 1.15 1.616 1.15 2.955 0 1.185-.374 2.084-1.122 2.696-.748.612-1.832.918-3.253.918-.262 0-2.001-.153-5.217-.46a97.832 97.832 0 0 0-9.256-.458 72.07 72.07 0 0 0-7.909.459c-2.767.306-4.3.459-4.6.459-1.608 0-2.776-.278-3.505-.832-.73-.555-1.094-1.444-1.094-2.668 0-1.338.411-2.342 1.234-3.011.823-.67 2.02-1.004 3.59-1.004.411 0 .981.057 1.71.172.73.115 1.244.172 1.543.172 2.207 0 3.674-.402 4.404-1.205.729-.803 1.093-3.098 1.093-6.884v-35.452z" style="line-height:125%;-inkscape-font-specification:'AmerType Md BT';text-align:start"/><path d="M444.764 328.958c-2.005.039-4.092.105-6.264.201a226.7 226.7 0 0 1-3.535.143c-1.262 0-2.19-.267-2.784-.803-.594-.535-.89-1.376-.89-2.524 0-1.147.399-2.055 1.197-2.725.798-.669 1.883-1.003 3.256-1.004.149 0 1.058.058 2.728.173a70.45 70.45 0 0 0 4.788.172h1.504c0-.268-.019-.66-.056-1.176a17.811 17.811 0 0 1-.056-1.176c0-6.463 1.596-11.368 4.788-14.715 3.192-3.346 7.869-5.02 14.03-5.02 4.268 0 7.692.967 10.272 2.898s3.87 4.484 3.87 7.658c0 1.721-.465 3.098-1.392 4.13-.928 1.033-2.172 1.55-3.73 1.55-1.634 0-2.924-.383-3.87-1.148-.946-.765-1.42-1.797-1.42-3.098 0-.459.084-1.1.25-1.921.168-.823.251-1.406.251-1.75 0-.535-.352-.937-1.057-1.205-.706-.267-1.8-.401-3.285-.401-3.378 0-5.939 1.051-7.683 3.155-1.745 2.103-2.617 5.201-2.617 9.293 0 .765.009 1.348.028 1.75.018.401.065.793.14 1.176 2.486 0 5.084-.096 7.794-.287.63-.038 1.02-.057 1.169-.058 1.521 0 2.7.316 3.535.947s1.253 1.52 1.253 2.668c0 1.147-.325 2.007-.975 2.581-.65.574-1.642.86-2.978.86-.149 0-.538-.019-1.17-.057a127.71 127.71 0 0 0-8.406-.287v35.452c0 3.595.278 5.842.835 6.74.557.9 1.707 1.349 3.452 1.349.148 0 .724-.057 1.726-.172a24.178 24.178 0 0 1 2.728-.172c1.67 0 2.885.315 3.646.946.761.631 1.142 1.616 1.142 2.955 0 1.185-.372 2.084-1.114 2.696-.742.612-1.819.918-3.229.918-.26 0-1.986-.153-5.178-.46a96.379 96.379 0 0 0-9.186-.458c-2.487 0-5.103.153-7.85.459-2.746.306-4.268.459-4.565.459-1.596 0-2.756-.278-3.48-.832-.724-.555-1.085-1.444-1.085-2.668 0-1.338.408-2.342 1.224-3.011.817-.67 2.005-1.004 3.564-1.004.408 0 .974.057 1.698.172.723.115 1.234.172 1.53.172 2.19 0 3.647-.402 4.371-1.205.724-.803 1.086-3.098 1.086-6.884v-35.452z" style="line-height:125%;-inkscape-font-specification:'AmerType Md BT';text-align:start"/><path d="M486.891 364.41v-23.405c0-5.392-.354-8.748-1.063-10.068-.708-1.319-2.161-1.979-4.358-1.979h-3.934c-1.31 0-2.214-.248-2.71-.745-.497-.498-.745-1.358-.745-2.582 0-1.032.364-1.912 1.09-2.639.726-.726 1.621-1.09 2.684-1.09.213 0 1.019.058 2.419.172 1.4.115 2.702.173 3.907.172 2.02 0 4.128-.095 6.325-.286.531-.039.85-.058.957-.058 1.488 0 2.48.287 2.976.86.496.574.745 1.894.745 3.959v37.69c0 3.518.327 5.765.983 6.74.655.975 2.029 1.463 4.12 1.463.46 0 .992-.058 1.594-.172.602-.115 1.028-.173 1.276-.173 1.523 0 2.666.326 3.428.976.762.65 1.143 1.625 1.143 2.925 0 1.262-.328 2.161-.983 2.697-.656.535-1.746.803-3.27.803-.425 0-1.913-.153-4.464-.46-2.552-.305-4.873-.458-6.964-.458-3.933 0-7.92.248-11.96.746-.885.114-1.434.172-1.647.172-1.56 0-2.675-.278-3.349-.832-.673-.555-1.01-1.444-1.01-2.668 0-1.3.381-2.275 1.143-2.925.762-.65 1.905-.976 3.429-.976.354 0 .868.058 1.541.173.673.114 1.17.172 1.488.172 2.162 0 3.57-.469 4.226-1.406.656-.937.983-3.203.983-6.798zm-3.941-54.508c0-1.797.602-3.308 1.804-4.532 1.203-1.223 2.687-1.835 4.454-1.835 1.691 0 3.11.612 4.256 1.835 1.146 1.224 1.72 2.735 1.72 4.532 0 1.721-.583 3.194-1.748 4.418-1.165 1.223-2.575 1.835-4.228 1.835-1.767 0-3.251-.602-4.454-1.807-1.202-1.204-1.804-2.686-1.804-4.446zm23.515 40.276c0-9.484 2.35-16.942 7.052-22.372 4.7-5.43 11.146-8.146 19.336-8.146 6.61 0 11.945 1.597 16.003 4.79 4.059 3.193 6.088 7.352 6.088 12.477 0 2.983-.817 5.354-2.452 7.113-1.634 1.76-3.847 2.64-6.638 2.64-1.91 0-3.388-.45-4.435-1.349-1.046-.899-1.57-2.17-1.57-3.815 0-1.109.276-2.122.827-3.04.55-.918 1.322-1.664 2.313-2.237.184-.115.46-.23.827-.345.808-.344 1.212-.86 1.212-1.549 0-1.835-1.12-3.49-3.36-4.962-2.241-1.472-4.922-2.208-8.044-2.208-5.802 0-10.31 2.094-13.524 6.281-3.214 4.188-4.82 10.087-4.82 17.698 0 6.654 1.551 11.999 4.655 16.033 3.103 4.035 7.189 6.052 12.257 6.052 3.415 0 6.243-.736 8.484-2.208 2.24-1.473 4.076-3.815 5.509-7.027.33-.727.752-1.874 1.267-3.442 1.248-3.634 2.81-5.45 4.682-5.45 1.175 0 2.149.392 2.92 1.176.771.784 1.157 1.769 1.157 2.954 0 1.76-.45 3.834-1.35 6.224-.9 2.39-2.066 4.542-3.498 6.454-2.204 2.868-4.94 5.039-8.208 6.511-3.269 1.472-7.033 2.209-11.294 2.209-7.822 0-14.01-2.735-18.565-8.204-4.554-5.469-6.83-12.888-6.83-22.258zm81.536-30.053c-8.055 0-14.448 2.72-19.179 8.177-4.73 5.457-7.082 12.8-7.082 22.04 0 9.277 2.351 16.642 7.082 22.099 4.73 5.456 11.124 8.207 19.18 8.207 4.521 0 8.422-.744 11.671-2.188 3.249-1.445 6.037-3.677 8.393-6.718 1.52-2.016 2.727-4.046 3.64-6.08.911-2.034 1.376-3.738 1.376-5.107 0-1.179-.387-2.139-1.147-2.918-.76-.78-1.713-1.186-2.853-1.186-1.786 0-3.248 1.564-4.426 4.682-.76 2.09-1.48 3.654-2.163 4.68-1.787 2.548-3.782 4.393-5.967 5.533-2.185 1.141-4.874 1.703-8.066 1.703-5.244 0-9.449-1.928-12.622-5.806-3.173-3.879-4.754-9.047-4.754-15.473v-.335h36.884c2.204 0 3.666-.364 4.426-1.124.76-.76 1.147-2.286 1.147-4.53 0-7.795-2.314-14.006-6.95-18.664-4.636-4.658-10.838-6.992-18.59-6.992zm.132 7.478c4.673 0 8.436 1.427 11.343 4.317s4.36 6.669 4.36 11.308v.73h-32.194c.494-5.058 2.235-9.05 5.18-11.977 2.945-2.928 6.713-4.378 11.31-4.378z" style="line-height:125%;-inkscape-font-specification:'AmerType Md BT';text-align:start"/></g><text style="line-height:125%" x="229.347" y="728.48" font-weight="400" font-size="60.13" font-family="sans-serif" letter-spacing="26.098" word-spacing="0" fill="#2c3e50" transform="translate(0 -632.362)"><tspan x="229.347" y="728.48" style="line-height:125%;-inkscape-font-specification:'Roboto, Medium';text-align:start" font-weight="500" font-family="Roboto" letter-spacing="3.216">MEETING</tspan></text><text y="908.241" x="332.931" style="line-height:125%" font-weight="400" font-size="59.045" font-family="sans-serif" letter-spacing="25.627" word-spacing="0" fill="#2c3e50" transform="translate(0 -632.362)"><tspan style="line-height:125%;-inkscape-font-specification:'Roboto, Medium';text-align:start" y="908.241" x="332.931" font-weight="500" font-family="Roboto" letter-spacing="3.158">AT</tspan></text></svg>